<svg xmlns="http://www.w3.org/2000/svg" xmlns:xlink="http://www.w3.org/1999/xlink" viewBox="0 0 500 500"><defs><clipPath id="freepik--clip-path--inject-81"><path d="M419.57,168.23a10.06,10.06,0,0,0,3.95,3.7s8.86,0,11.48-10.29,7.67-12.49,7.67-12.49a2.57,2.57,0,0,0-2.31-.52l1.23-1.37a4,4,0,0,0-4,.46l.31-2a8.42,8.42,0,0,1-4.81,3.73C429.91,150.16,416.31,155.79,419.57,168.23Z" style="fill:#fff;stroke:#263238;stroke-linecap:round;stroke-linejoin:round"></path></clipPath><clipPath id="freepik--clip-path-2--inject-81"><path d="M282.83,107c35.28,14.66,35.73,48.79,23.62,65.82-11,15.51-25.88,14.34-27.18,21.76s-42.8-3.39-44.73-8.7,6.68-4.59-9.26-25.87S239.51,89,282.83,107Z" style="fill:#fff;stroke:#263238;stroke-linecap:round;stroke-linejoin:round"></path></clipPath></defs><g id="freepik--background-simple--inject-81"><path d="M67.93,167.09s-27.88,72,11.3,144.5S199.11,422.39,263.7,455.14s131.66,16.8,163.53-36.84-11.84-91.93-11.9-168.42,11.45-96.74-30-161.36-143.06-78.93-219.9-31S67.93,167.09,67.93,167.09Z" style="fill:#fff;opacity:0.7000000000000001"></path><path d="M428.06,91.3c-56.66-62.67-162.82-53-212.16-39.85-33.94,9.08-53.51,39-77.24,42.64-71.5,11-118.53,47.47-107.37,109.67s70.29,81.76,99.29,171.85S231.22,480.51,307.25,450,397,395.81,415,311,493,163.08,428.06,91.3Z" style="fill:#ECF4EE"></path><path d="M428.06,91.3c-56.66-62.67-162.82-53-212.16-39.85-33.94,9.08-53.51,39-77.24,42.64-71.5,11-118.53,47.47-107.37,109.67s70.29,81.76,99.29,171.85S231.22,480.51,307.25,450,397,395.81,415,311,493,163.08,428.06,91.3Z" style="fill:#fff;opacity:0.7000000000000001"></path></g><g id="freepik--light-bulb--inject-81"><path d="M235.91,183.77s-6.17,1.43-1.18,8.16c0,0-5.64.93-1.7,7.81,0,0-3.41,2.89.83,8,0,0-2,5,7.93,11.81,0,0-.07,4.25,6.81,5.88,6,1.42,7.63-1.09,7.63-1.09s7.9-1,12.24-7.49c0,0,7-2.13,4.95-6.39,0,0,5.64-4.4,2.64-7.25,0,0,6.48-6.53,3.21-8.7C273.53,190.72,235.91,183.77,235.91,183.77Z" style="fill:#263238;stroke:#263238;stroke-linecap:round;stroke-linejoin:round"></path><path d="M282.83,107c35.28,14.66,35.73,48.79,23.62,65.82-11,15.51-25.88,14.34-27.18,21.76s-42.8-3.39-44.73-8.7,6.68-4.59-9.26-25.87S239.51,89,282.83,107Z" style="fill:#fff"></path><g style="clip-path:url(#freepik--clip-path-2--inject-81)"><path d="M279.28,194.54c-1.3,7.42-42.81-3.4-44.74-8.7s6.68-4.6-9.26-25.87,14.23-71,57.55-53a60.05,60.05,0,0,1,12,6.58c-17.72-3.9-41.8-4.58-55.08,19.84-14.45,26.59,8,50.77,19.34,52.65,0,0-9.36-6.82-12.48-18.29,0,0,16,23.7,41,19.74C283.14,189.62,279.86,191.22,279.28,194.54Z" style="fill:#ECF4EE;opacity:0.4"></path></g><path d="M282.83,107c35.28,14.66,35.73,48.79,23.62,65.82-11,15.51-25.88,14.34-27.18,21.76s-42.8-3.39-44.73-8.7,6.68-4.59-9.26-25.87S239.51,89,282.83,107Z" style="fill:none;stroke:#263238;stroke-linecap:round;stroke-linejoin:round"></path><path d="M273.33,204s-16.61,5.59-37.46-2.75" style="fill:none;stroke:#fff;stroke-linecap:round;stroke-linejoin:round"></path><path d="M263.61,199a24.3,24.3,0,0,0,2.95-.39" style="fill:none;stroke:#fff;stroke-linecap:round;stroke-linejoin:round"></path><path d="M237.15,193.54a71.83,71.83,0,0,0,21,5.41" style="fill:none;stroke:#fff;stroke-linecap:round;stroke-linejoin:round"></path><path d="M248.51,211.6c6.92,1.09,14.26,1.3,21-.78" style="fill:none;stroke:#fff;stroke-linecap:round;stroke-linejoin:round"></path><path d="M236.65,208.7A64,64,0,0,0,245,211" style="fill:none;stroke:#fff;stroke-linecap:round;stroke-linejoin:round"></path><path d="M259.12,217.81a61.94,61.94,0,0,1-18-4.85" style="fill:none;stroke:#fff;stroke-linecap:round;stroke-linejoin:round"></path><path d="M265,218c-.9.05-1.81,0-2.72,0" style="fill:none;stroke:#fff;stroke-linecap:round;stroke-linejoin:round"></path><path d="M243.3,220.64a20.56,20.56,0,0,0,11.42,3.78" style="fill:none;stroke:#fff;stroke-linecap:round;stroke-linejoin:round"></path><path d="M277.06,193.07s-17.74-11.4-38.49-10.3" style="fill:none;stroke:#263238;stroke-linecap:round;stroke-linejoin:round"></path><path d="M264.64,189.84s10.17-22.17,24.37-23.67c0,0-8.6-6.91-11.95-7.95s-5.48,6.27-3.14,5.49,5.68-10.92,1.69-13.57-11.69,10.53-9.42,11.61,5.1-12.79-.46-14.36-9.68,10.39-7.07,10.63,3.51-5-2.43-6.94c-6.43-2.15-14.49,1-14.49,1S254.19,167,250.08,186" style="fill:none;stroke:#263238;stroke-linecap:round;stroke-linejoin:round"></path></g></svg>