<svg xmlns="http://www.w3.org/2000/svg" viewBox="0 0 462.08 460.55"><g id="freepik--background-simple--inject-786"><path d="M327.45,437c35.72-7.86,68.13-27.12,85.55-57,28-48,1-71,13-114,6.7-24,27.16-35.11,40.88-54.1C525.6,130.64,433.48,3.79,339.8,16.31a88.87,88.87,0,0,0-35,12.07c-12.14,7.44-23.4,18.66-38.29,20-16.09,1.42-32.33-7-46.46-13.58-35.58-16.53-83.87-25.24-121.83-11C69.87,34.36,57.68,59.76,56,88.6s10.41,60.21,5,88.4c-5.54,28.82-27.58,52.29-34.71,81.1A104.7,104.7,0,0,0,61.5,364c34.88,28.59,79.11,20.39,119.17,35.12,23,8.46,38.94,27.8,63.15,35.19C270.73,442.55,300,443,327.45,437Z" transform="translate(-23.24 -15.45)" style="fill:#E0EDE4"></path><path d="M327.45,437c35.72-7.86,68.13-27.12,85.55-57,28-48,1-71,13-114,6.7-24,27.16-35.11,40.88-54.1C525.6,130.64,433.48,3.79,339.8,16.31a88.87,88.87,0,0,0-35,12.07c-12.14,7.44-23.4,18.66-38.29,20-16.09,1.42-32.33-7-46.46-13.58-35.58-16.53-83.87-25.24-121.83-11C69.87,34.36,57.68,59.76,56,88.6s10.41,60.21,5,88.4c-5.54,28.82-27.58,52.29-34.71,81.1A104.7,104.7,0,0,0,61.5,364c34.88,28.59,79.11,20.39,119.17,35.12,23,8.46,38.94,27.8,63.15,35.19C270.73,442.55,300,443,327.45,437Z" transform="translate(-23.24 -15.45)" style="fill:#fff;opacity:0.7000000000000001"></path></g><g id="freepik--Magnifiers--inject-786"><path d="M389.41,73.74a16.35,16.35,0,0,0,25.78,17l6.33,6.06a3.91,3.91,0,0,0,1.06,3.73L436.33,114a3.91,3.91,0,1,0,5.45-5.62L428,94.9a3.92,3.92,0,0,0-3.81-.94L418,88a16.08,16.08,0,0,0,3.14-6.26,16.36,16.36,0,1,0-31.73-8ZM418.3,81a13.43,13.43,0,1,1-9.74-16.3A13.44,13.44,0,0,1,418.3,81Z" transform="translate(-23.24 -15.45)" style="fill:none;stroke:#263238;stroke-miterlimit:10"></path><path d="M87,271.91A12.29,12.29,0,0,0,84.66,295l-1.84,6.33a2.93,2.93,0,0,0-2.12,2l-4.25,13.87a3,3,0,0,0,2,3.67,3,3,0,0,0,3.67-2L86.34,305a2.91,2.91,0,0,0-.7-2.87l1.82-6.22a12.3,12.3,0,1,0-.42-24Zm5.18,21.8a10.1,10.1,0,1,1,7.49-12.16A10.11,10.11,0,0,1,92.22,293.71Z" transform="translate(-23.24 -15.45)" style="fill:none;stroke:#263238;stroke-miterlimit:10"></path></g><g id="freepik--Messages--inject-786"><path d="M420.4,179.75h-29a7.1,7.1,0,0,0-7.1,7.1V202.9a7.1,7.1,0,0,0,7.1,7.1h20.2l-1,10L420,210h.4a7.1,7.1,0,0,0,7.1-7.1V186.85A7.1,7.1,0,0,0,420.4,179.75Z" transform="translate(-23.24 -15.45)" style="fill:none;stroke:#263238;stroke-miterlimit:10"></path><path d="M89.1,217.75h19.65a4.81,4.81,0,0,1,4.81,4.81v10.87a4.81,4.81,0,0,1-4.81,4.81H95.07l.71,6.76-6.41-6.76H89.1a4.81,4.81,0,0,1-4.81-4.81V222.56A4.81,4.81,0,0,1,89.1,217.75Z" transform="translate(-23.24 -15.45)" style="fill:none;stroke:#263238;stroke-miterlimit:10"></path><path d="M234.35,34.51H254a4.81,4.81,0,0,1,4.81,4.81V50.19A4.81,4.81,0,0,1,254,55H240.32l.71,6.76L234.62,55h-.27a4.81,4.81,0,0,1-4.81-4.81V39.32A4.81,4.81,0,0,1,234.35,34.51Z" transform="translate(-23.24 -15.45)" style="fill:none;stroke:#263238;stroke-miterlimit:10"></path></g><g id="freepik--Connections--inject-786"><polyline points="184.41 41.14 232.49 175.5 335.74 43.26" style="fill:none;stroke:#263238;stroke-miterlimit:10"></polyline><polyline points="376.75 128.83 232.49 175.5 329.37 284.4" style="fill:none;stroke:#263238;stroke-miterlimit:10"></polyline><polyline points="121.47 280.16 232.49 175.5 81.16 150.04" style="fill:none;stroke:#263238;stroke-miterlimit:10"></polyline><circle cx="399.37" cy="144.68" r="14.62" transform="translate(62.75 415.98) rotate(-62.37)" style="fill:#263238;stroke:#263238;stroke-miterlimit:10;stroke-width:0.5px"></circle><path d="M404.22,143.69h-9.53a3.37,3.37,0,0,0-3.37,3.37v8a13.09,13.09,0,0,0,16.27-.13v-7.87A3.37,3.37,0,0,0,404.22,143.69Z" transform="translate(-23.24 -15.45)" style="fill:#E0EDE4;stroke:#263238;stroke-miterlimit:10"></path><path d="M399.29,142.22a4.85,4.85,0,1,0-4.85-4.85A4.85,4.85,0,0,0,399.29,142.22Z" transform="translate(-23.24 -15.45)" style="fill:#E0EDE4;stroke:#263238;stroke-miterlimit:10"></path><circle cx="354.11" cy="294.67" r="14.62" transform="translate(-77.68 492.1) rotate(-67.29)" style="fill:#263238;stroke:#263238;stroke-miterlimit:10;stroke-width:0.5px"></circle><path d="M359,293.69h-9.53a3.36,3.36,0,0,0-3.37,3.36v8a13.09,13.09,0,0,0,16.27-.13v-7.87A3.36,3.36,0,0,0,359,293.69Z" transform="translate(-23.24 -15.45)" style="fill:#E0EDE4;stroke:#263238;stroke-miterlimit:10"></path><path d="M354,292.21a4.85,4.85,0,1,0-4.85-4.85A4.85,4.85,0,0,0,354,292.21Z" transform="translate(-23.24 -15.45)" style="fill:#E0EDE4;stroke:#263238;stroke-miterlimit:10"></path><circle cx="183.78" cy="40.2" r="10.38" style="fill:#263238;stroke:#263238;stroke-miterlimit:10;stroke-width:0.5px"></circle><path d="M210.46,55H203.7a2.39,2.39,0,0,0-2.39,2.39V63a9.31,9.31,0,0,0,11.54-.09V57.34A2.39,2.39,0,0,0,210.46,55Z" transform="translate(-23.24 -15.45)" style="fill:#E0EDE4;stroke:#263238;stroke-miterlimit:10"></path><path d="M207,53.9a3.44,3.44,0,1,0-3.44-3.44A3.44,3.44,0,0,0,207,53.9Z" transform="translate(-23.24 -15.45)" style="fill:#E0EDE4;stroke:#263238;stroke-miterlimit:10"></path><circle cx="143.12" cy="293.91" r="10.38" transform="translate(-206.48 297.36) rotate(-67.35)" style="fill:#263238;stroke:#263238;stroke-miterlimit:10;stroke-width:0.5px"></circle><path d="M146.56,293.21H139.8a2.39,2.39,0,0,0-2.4,2.4v5.67a9.28,9.28,0,0,0,11.55-.09v-5.58A2.39,2.39,0,0,0,146.56,293.21Z" transform="translate(-23.24 -15.45)" style="fill:#E0EDE4;stroke:#263238;stroke-miterlimit:10"></path><path d="M143.06,292.16a3.44,3.44,0,1,0-3.44-3.44A3.44,3.44,0,0,0,143.06,292.16Z" transform="translate(-23.24 -15.45)" style="fill:#E0EDE4;stroke:#263238;stroke-miterlimit:10"></path><circle cx="358.8" cy="54.89" r="10.38" transform="translate(153.74 353.6) rotate(-68.64)" style="fill:#263238;stroke:#263238;stroke-miterlimit:10;stroke-width:0.5px"></circle><path d="M362.25,54.19h-6.77a2.39,2.39,0,0,0-2.39,2.39v5.68a9.32,9.32,0,0,0,11.55-.09V56.58A2.39,2.39,0,0,0,362.25,54.19Z" transform="translate(-23.24 -15.45)" style="fill:#E0EDE4;stroke:#263238;stroke-miterlimit:10"></path><path d="M358.75,53.14a3.44,3.44,0,1,0-3.44-3.44A3.44,3.44,0,0,0,358.75,53.14Z" transform="translate(-23.24 -15.45)" style="fill:#E0EDE4;stroke:#263238;stroke-miterlimit:10"></path><circle cx="103.13" cy="163" r="18.95" transform="translate(-110.39 179.2) rotate(-67.12)" style="fill:#263238;stroke:#263238;stroke-miterlimit:10;stroke-width:0.5px"></circle><path d="M109.41,161.73H97.06a4.37,4.37,0,0,0-4.37,4.36v10.36a17,17,0,0,0,21.08-.16v-10.2A4.36,4.36,0,0,0,109.41,161.73Z" transform="translate(-23.24 -15.45)" style="fill:#E0EDE4;stroke:#263238;stroke-miterlimit:10"></path><path d="M103,159.81a6.28,6.28,0,1,0-6.28-6.28A6.28,6.28,0,0,0,103,159.81Z" transform="translate(-23.24 -15.45)" style="fill:#E0EDE4;stroke:#263238;stroke-miterlimit:10"></path></g><g id="freepik--earth-globe--inject-786"><circle cx="255.05" cy="188.21" r="108.67" transform="translate(-81.62 220.03) rotate(-45)" style="fill:#fff;stroke:#263238;stroke-miterlimit:10"></circle><path d="M251.14,137.91l10.32,4.64,2.83,4.64,4.65,1.81.51,4.9-1.8,2.83-3.61.78-7.74-3.1v-1l4.38-1.81-1.54-5.41-7-2.58-3.09-4.13Zm65,119.15-8.25-3.35-10.06-3.61h-8l-7.48-1.55-8.26,1.8-4.64.26h-2.83l-5.42,3.1L256,255.77l-7-4.38,1.8-7.23-4.38-1.8h-5.16l-.77-2.32.51-4.65-1.8-2.57-3.61.51-1,2.58-4.38.26-3.87-4.64-1.55-6.19,3.87-7.23,7.48.52,2.07,1.81h3.09l3.87-2.33,3.35,1,4.64,8,1.81-.26-.52-5.93L253,217.86l.51-4.9,9.54-4.13,1.29-9.54,4.13-3.36,3.35-5.93,2.58-.51,5.93-3.87.26-2.06-4.12.25-.78-2.06h-2.83l-4.39,1,2.06-3.35,9-2.58,2.06-2.32,3.61,5.67,2.33,2.32,3.61-1-1.55-3.35-5.42-3.87-6.19-7-6.44-4.39-6.19-1-3.1-3.09-4.13-1-.51,1-.52,7.48,1,2.57-2.32,8.26L250.63,173l.77-3.61L246,166.79,243.66,164l1.29-6.44,7.48-5.42.52-6.19-2.84.26-1.81-2.32-.77-3.87-1.81-.26-1,4.13-2.83.51-1.29-9L238.5,134l-3.61-1.55-4.12,2.06,5.15,4.9,1,4.39-9.29-7-6.45-7-.51-7L214,120.88l-5.16,3.36A41.91,41.91,0,0,1,205,126.3a42.49,42.49,0,0,1-6.19,1l-1,4.39-5.93.25.52,2.84,9.54,1.55,4.9,5.41v9l-2.84,8,.52,8.51-7.22,12.63-1.55,18.83L198,209.6l3.35,8.26,3.87.51-1.29-4.12-2.06-3.1-1.29-5.67,2.32-.52,3.61,9.29,2.58,8.25v6.7l4.9,5.94,8.77,6.44,13.41,3.62,4.13,3.86,3.09,4.13,4.65,2.84,5.67,1.54,5.67-.25s-.25,2.58-.25,3.87-3.61,5.67-3.61,5.67L252.69,272l2.06,5.67,5.68,2.32,8,8.26,3.61,1.54v3.87l.45,1.8A108.22,108.22,0,0,0,326.57,270l.14-1.87,7-12.64-3.35-2.32ZM343,155.19l-2.84-4.91-3.61-5.67-1-7.74,4.64.78.26-2.58-3.36-.26,2.84-1.29,3.1-1.8v-2.58l-3.1-4.13-.66-5.55a108.7,108.7,0,0,0-127.53-30.9l5.94,4.21L214,97.41l-4.9,1-.51,7-2.07.77L203.94,109l.26,4.64,4.39.52-1.81,4.38h4.39l7.47-9.54.78-4.13,7.22-.51,1.8-3.1,7.48-.77.78-4.39,5.41-.25s3.87-2.07,4.65-2.07a31.52,31.52,0,0,1,4.38,1.29l3.87,3.1h5.42l4.64-2.84,5.93.52a6.39,6.39,0,0,0,2.84,1c1.29,0,5.16-1.81,5.16-1.81l7.47,4.64,3.1,2.33v3.86l3.87.52,1.29-2.32,3.35,1.55-.26,2.06-7.73,2.06,4.38,5.68,9.28,5.16,3.87,5.15,5.68.52,1.29-2.58,2.06-.52-6.71-5.15-4.12-.52,3.35-1-3.09-4.39,4.38-.25,5.67,3.09,1.29,6.19,2.84,3.35,2.32,7.48,5.68,4.13v8.51l5.93,3.87-.26,2.84-.77,3.35,1.54,4.64.52,2.32,4.38.78,2.07-4.39Zm3.35-26v1.48L345,134.81l.77,3.61,2.84,1v4.9l-3.09-1.29L344.76,157l-3.09,5.67,2.06,7.23,3.35,3.09v13.93l3.36,10.83,3.61,8.25,5.93,1.55,2.06-5.16.84-.66a109.38,109.38,0,0,0,.84-13.51A108.19,108.19,0,0,0,346.31,129.2Zm-59.58-1.61-17-7.48-7.48.26-1.8,4.9-3.1-3.36-5.67,1.29-.52,8.52,4.64,3.35,3.36-4.9L263,134l8,7,1.55,7.48,6.7,8.51,10.84-1.8-.26-3.87-2.32-4.39L287,136.62l2.58-4.39Zm13.93,5.67-3.87-1-3.35,2.84,1.8,7.48h3.36Zm24,4.9-8.77-4.64-1.81-3.09-2.06.77,1.8,5.16,1.55,6.7,3.87,1.55.77-1-2.32-3.87,6.71,2.58Zm-75.31,93.11-1,1,7.74,2.32,3.1,3.61,4.9.52,1.8-2.84-5.93-1Zm23,4.9-5.42,1.55.78,2.06h6.7l1.29-2.06-2.32.25Z" transform="translate(-23.24 -15.45)" style="fill:#E0EDE4;stroke:#263238;stroke-miterlimit:10"></path></g></svg>